<svg xmlns="http://www.w3.org/2000/svg" viewBox="0 0 92 40"><defs><style>.cls-1{fill:#fcfcfc;}.cls-2{fill:none;}</style></defs><title>logo</title><g id="图层_2" data-name="图层 2"><g id="图层_1-2" data-name="图层 1"><path class="cls-1" d="M89.86.64,79.28,5.23a.1.1,0,0,0,0,.18L83.48,7.1a.1.1,0,0,1,.06.06l1.71,4.24a.1.1,0,0,0,.18,0L90,.78A.1.1,0,0,0,89.86.64Z"/><path class="cls-1" d="M9.5,37.62c.25,0,.3-.15.33-1.06a1.53,1.53,0,0,0,.49.22c-.06,1.07-.21,1.34-.77,1.34h-1c-.62,0-.78-.18-.78-.75V35.3H6.43a3,3,0,0,1-2.14,3A1.44,1.44,0,0,0,4,37.82,2.5,2.5,0,0,0,5.88,35.3H4.05v-.51H6.86V33.38H5.41a4.76,4.76,0,0,1-.62,1.07,2.83,2.83,0,0,0-.46-.25,6,6,0,0,0,1-2.26l.53.11c-.07.27-.16.54-.26.83H6.86v-1.1h.52v1.1H9.71v.5H7.39v1.41h2.83v.51H8.28v2.07c0,.21,0,.25.32.25Z"/><path class="cls-1" d="M21.78,34.65v.57h-6.4v-.57Z"/><path class="cls-1" d="M30.34,34.42v2.21a4.39,4.39,0,0,0,1.72-1.84l.49.23c-.93,1.82-2.7,2.76-5.39,3.17a1.57,1.57,0,0,0-.27-.49,9.12,9.12,0,0,0,3.41-1.05H29.8V34.42H26.95v-.5H28V32.33h.52v1.59h1.31V31.78h.54v.75h2.06V33H30.39v.9H33.1v.5Zm-1.27.47a6.77,6.77,0,0,1-1.53,1.75,2.6,2.6,0,0,0-.4-.4,5.11,5.11,0,0,0,1.42-1.52Z"/><path class="cls-1" d="M40.19,37.75c0,.21,0,.33-.19.4a2.15,2.15,0,0,1-.74.06,1.43,1.43,0,0,0-.13-.37h.57c.07,0,.09,0,.09-.09V37h-.74a2.38,2.38,0,0,1-.48,1.17,1.15,1.15,0,0,0-.33-.23,2.67,2.67,0,0,0,.49-1.76V35h1.46ZM39.1,32.57h-.83V32.2h3c-.06-.13-.14-.26-.21-.37l.5-.11c.1.15.21.34.29.49h2.81v.37H39.54V33h4.68v.37H39.1Zm.69,4.12v-.5h-.67v0c0,.14,0,.3,0,.46Zm-.67-1.33v.47h.67v-.47Zm4.74-.65H39.15V33.65h4.72Zm-.5-.73H39.62v.39h3.75Zm-1.52,3.88a7,7,0,0,0-.56-.55,1.67,1.67,0,0,1-.88.91,1.1,1.1,0,0,0-.22-.3c.83-.37,1-1,1-2.29h.34A6,6,0,0,1,41.37,37l0,0a4.31,4.31,0,0,1,.69.62Zm0-.8V35.38h-1v1.73H40.5V35h1.68v2.06Zm2.45.78s.08,0,.09,0a.33.33,0,0,0,.06-.15,4.41,4.41,0,0,0,0-.54.88.88,0,0,0,.31.16,3.07,3.07,0,0,1-.06.64.33.33,0,0,1-.15.21.44.44,0,0,1-.25.06h-.23a.42.42,0,0,1-.3-.11c-.09-.08-.11-.18-.11-.61v-.41l-.28.12A6.93,6.93,0,0,0,42.87,36v.12a2.87,2.87,0,0,1-.69,2.07,1.4,1.4,0,0,0-.33-.23,2.45,2.45,0,0,0,.64-1.85V35H44v2.52a.86.86,0,0,0,0,.29.09.09,0,0,0,.08,0Zm-1.18-2a6.77,6.77,0,0,1,.57,1.13V35.39h-.78v.5Z"/><path class="cls-1" d="M56,32.87v.5H52.17a9.22,9.22,0,0,1-.86,1.44v3.39H50.8V35.43a5.29,5.29,0,0,1-.82.71,2.21,2.21,0,0,0-.27-.47,6.07,6.07,0,0,0,1.87-2.3h-1.7v-.5h1.93a9.61,9.61,0,0,0,.37-1.1l.54.13c-.09.32-.21.64-.34,1Zm-1.87,4.7H56v.5H51.78v-.5h1.86v-2H52.05v-.49h1.58V33.74h.52v1.35h1.59v.49H54.16Z"/><path class="cls-1" d="M65,35.18a7.12,7.12,0,0,0,2.7,2.22,2.33,2.33,0,0,0-.38.45,7.85,7.85,0,0,1-2.62-2.28v2.67h-.54V35.59a7.74,7.74,0,0,1-2.6,2.25,2.76,2.76,0,0,0-.38-.43,7,7,0,0,0,2.69-2.23h-2.5v-.52h2.79V33.45H61.84v-.52h2.28V31.78h.54v1.15H67v.52H64.67v1.22h2.84v.52Z"/><path class="cls-1" d="M76.49,35.39a7.08,7.08,0,0,0,2.64,2.11,2.5,2.5,0,0,0-.37.45,7.9,7.9,0,0,1-2.64-2.28v2.56h-.54V35.68A7.76,7.76,0,0,1,73,37.92a3,3,0,0,0-.37-.43,7,7,0,0,0,2.63-2.1H72.75v-.5h2.83V33.13h-2.5v-.5h2.5v-.85h.54v.85h2.56v.5H76.13v1.76H79v.5Zm-2.37-2.1a5.06,5.06,0,0,1,.67,1.32l-.49.19a5.18,5.18,0,0,0-.64-1.34ZM77,34.67a10.14,10.14,0,0,0,.71-1.41l.54.17a11.62,11.62,0,0,1-.81,1.38Z"/><path class="cls-1" d="M7.89,12A14.89,14.89,0,0,1,7,15.19v12.4a16.08,16.08,0,0,0,1.6-7.47H7.56V18.75H9.91v-1.3H8V16.09H9.91V14.77H7.74V13.42H9.91V11.57h2.33v1.85h2.18v1.36H12.24v1.32h1.89v1.36H12.24v1.3h2.35v1.38H11a14,14,0,0,1-.1,1.64h3.46v5.35a1.35,1.35,0,0,1,0,.32,19,19,0,0,0,2.39-3.88,24.06,24.06,0,0,1-1.51-5.08l-.27.34-1-.8A20.52,20.52,0,0,0,16,11.35l2.35.36a11.54,11.54,0,0,1-.82,2.67h3.71v1.38H20.8a17.59,17.59,0,0,1-1.68,7.76A21.14,21.14,0,0,0,21.51,27l-1.62,1.91a16.41,16.41,0,0,1-2.12-3.08,11.23,11.23,0,0,1-3,3.08l-.65-.94a1.27,1.27,0,0,1-1.09.55H10.47l-.23-1.38h1.38q.4,0,.4-.38V23.12H10.7q-.8,4.07-3,5.75L7,28v.71H4.7V19.89q-.38.59-.78,1.15L3,20.12A38.31,38.31,0,0,0,5.6,11.35Zm10.58,3.78H16.91q-.31.55-.63,1.11a36.38,36.38,0,0,0,1.45,3.9A18.12,18.12,0,0,0,18.47,15.77Z"/><path class="cls-1" d="M26.32,17.37a14,14,0,0,1-3,2.24l-.78-1a18.27,18.27,0,0,0,3.09-3.8H23V13.42h3.3V11.57h2.35v1.85h2.58v1.36H28.67v.78l.36-.36A12.75,12.75,0,0,1,31.52,17l-1.78,1.72q-.46-.76-1.07-1.74v2l2,.5a5.26,5.26,0,0,1-.44.69H38.7v1.36a12.49,12.49,0,0,1-5.06,4.79,22.21,22.21,0,0,1-8.88,2.6l-.4-1.13a29.34,29.34,0,0,0,5.81-1.81q-1.07-1.09-2.22-2.16l.92-1a13.76,13.76,0,0,1,3.44,2,15.75,15.75,0,0,0,3.63-3.29H29.15A13.9,13.9,0,0,1,23.8,25.2l-.73-1a20.63,20.63,0,0,0,4.64-4.51H26.32Zm13.6,2.14a9,9,0,0,1-2.92-3v3.13H34.67V17.24a13.73,13.73,0,0,1-3.11,2.37l-.76-1a17.08,17.08,0,0,0,3.11-3.8H31.82V13.42h2.85V11.57H37v1.85h3.63v1.36H37.69a12.27,12.27,0,0,0,3.38,2.75Z"/><path class="cls-1" d="M47.78,15.42V13.07h5.12q-.38-.53-.8-1l1.34-.69a6.92,6.92,0,0,1,2.12,1.22l-1.15.5H59.7v4.7H50.07v1.3h9.86v8.25a1.3,1.3,0,0,1-.38,1,1.47,1.47,0,0,1-1.09.4H56.68l-.17-.78H55.15V24.42h-.71V27.9H52.49V24.42h-.69v4.26H49.67V23.77a12.86,12.86,0,0,1-2,5.1L46.51,28a14.1,14.1,0,0,0,.42-1.45,30.94,30.94,0,0,1-4.24,1.64l-.55-2.25a46.83,46.83,0,0,0,5.16-1,29.61,29.61,0,0,0,.48-5.33V17a27.94,27.94,0,0,1-3,4.68q1.49-.25,2.41-.44l.29,1.26A26.65,26.65,0,0,1,43,24.29l-.59-2.24.38,0q.84-1.53,1.81-3.5a15.87,15.87,0,0,1-1.89.46l-.55-2.18h.31q1.13-2.64,2.1-5.44l2.45.71a18.94,18.94,0,0,1-2.56,4.7l1-.08q.46-1,.88-1.89Zm2.29-1v2h7.3v-2Zm2.43,8.62V20.43h-.69v2.64Zm2.66,0V20.43h-.71v2.64Zm2.64-2.64H57.1v2.64h.69Zm-.69,6.9h.27q.42,0,.42-.4v-2.5H57.1Z"/><path class="cls-1" d="M64.22,23.49A16.64,16.64,0,0,1,62.45,26l-.75-1.07a66.08,66.08,0,0,0,2.24-6.72H62V16.84h2.22V14q-1,.1-2,.11L62,12.67a32.71,32.71,0,0,0,6.07-1.32l.59,2q-.84.19-2.12.38v3.13h2.12v1.36H66.55V19.3l.53-.27a13,13,0,0,1,2.58,3.48l-2,1.26q-.5-1.22-1.13-2.67v7.58H64.22ZM75.3,20.79V23h3.78v1.36H75.3v2.43h4.6v1.38H68.39V26.75H73V24.33H69.21V23H73V20.79H68.85V19.44h10.6v1.36Zm-6-8.6v5.65H79V12.2Zm2.33,1.36h5v2.94h-5Z"/><rect class="cls-2" width="92" height="40"/></g></g></svg>